<svg width="46" height="46" viewBox="0 0 46 46" fill="none" xmlns="http://www.w3.org/2000/svg">
<path d="M41.6762 10.2818L40.6605 7.23734C40.2738 6.07779 39.1925 5.29868 37.9705 5.29868H29.4343V2.51949C29.4343 1.13042 28.3049 0 26.9162 0H19.0991C17.7107 0 16.581 1.13042 16.581 2.51949V5.29868H8.04515C6.82279 5.29868 5.7415 6.07779 5.35476 7.23734L4.3391 10.2818C4.10782 10.975 4.22504 11.7425 4.65215 12.3353C5.07926 12.928 5.77028 13.2821 6.50097 13.2821H7.5626L9.89924 42.1764C10.073 44.3203 11.8923 46 14.0419 46H32.4476C34.5968 46 36.4165 44.3203 36.5899 42.176L38.9265 13.2821H39.5143C40.245 13.2821 40.936 12.928 41.3632 12.3356C41.7903 11.7429 41.9075 10.975 41.6762 10.2818V10.2818ZM19.2763 2.69531H26.739V5.29868H19.2763V2.69531ZM33.9033 41.9588C33.8422 42.7137 33.2028 43.3047 32.4476 43.3047H14.0419C13.2866 43.3047 12.6472 42.7137 12.5861 41.9588L10.2667 13.2821H36.2224L33.9033 41.9588ZM7.07898 10.5868L7.91179 8.09015C7.93074 8.03259 7.98444 7.99399 8.04515 7.99399H37.9705C38.0312 7.99399 38.0846 8.03259 38.1039 8.09015L38.9367 10.5868H7.07898Z" fill="white"/>
<path d="M29.605 41.8633C29.6288 41.8647 29.6523 41.8651 29.6762 41.8651C30.3883 41.8651 30.9835 41.3071 31.0207 40.5876L32.2862 16.294C32.3248 15.5507 31.7535 14.9165 31.0105 14.8779C30.2654 14.8383 29.6334 15.4103 29.5944 16.1536L28.3292 40.4472C28.2906 41.1906 28.8616 41.8247 29.605 41.8633V41.8633Z" fill="white"/>
<path d="M15.0548 40.5908C15.0941 41.3092 15.6886 41.8651 16.3992 41.8651C16.4238 41.8651 16.4491 41.8644 16.474 41.863C17.217 41.8226 17.7866 41.1874 17.7462 40.4441L16.4207 16.1505C16.3803 15.4072 15.7451 14.8376 15.0018 14.8783C14.2588 14.9186 13.6892 15.5539 13.7296 16.2972L15.0548 40.5908Z" fill="white"/>
<path d="M23.0228 41.8651C23.7672 41.8651 24.3705 41.2619 24.3705 40.5175V16.2239C24.3705 15.4795 23.7672 14.8762 23.0228 14.8762C22.2785 14.8762 21.6752 15.4795 21.6752 16.2239V40.5175C21.6752 41.2619 22.2785 41.8651 23.0228 41.8651Z" fill="white"/>
</svg>
