<svg width="43" height="43" viewBox="0 0 43 43" fill="none" xmlns="http://www.w3.org/2000/svg">
<path d="M25.4951 9.45612H6.31714V12.5647H25.4951V9.45612Z" fill="white"/>
<path d="M34.8882 32.8284C36.3749 30.2022 35.9438 26.856 33.7814 24.6959C32.5021 23.4166 30.801 22.7105 28.9857 22.7105C27.1705 22.7105 25.4671 23.4166 24.1878 24.6959C22.9085 25.9752 22.2024 27.6763 22.2024 29.4938C22.2024 31.3044 22.9085 33.0079 24.1878 34.2918C25.4671 35.5665 27.1681 36.2725 28.9811 36.2725C30.1625 36.2725 31.3067 35.9719 32.3226 35.3987L39.9239 42.9999L42.4895 40.432L34.8882 32.8284ZM31.8403 32.3461C30.321 33.8654 27.6552 33.8654 26.1358 32.3461C24.5629 30.7708 24.5629 28.2145 26.1358 26.6393C26.8955 25.8796 27.9115 25.4602 28.9904 25.4602C30.0693 25.4602 31.0806 25.8796 31.8426 26.6393C32.6046 27.399 33.0241 28.4149 33.0241 29.4938C33.0241 30.5728 32.6023 31.5841 31.8403 32.3461Z" fill="white"/>
<path d="M31.0668 37.983H4.32719C3.90309 37.983 3.56054 37.6381 3.56054 37.2187V3.81694C3.56054 3.39284 3.90309 3.05029 4.32719 3.05029H31.0668C31.4909 3.05029 31.8311 3.39284 31.8311 3.81694V20.8557C32.9379 21.098 33.9702 21.5711 34.8837 22.2468V3.81694C34.8837 1.71273 33.1733 0 31.0668 0H4.32719C2.22298 0 0.510254 1.71273 0.510254 3.81694V37.2187C0.510254 39.3205 2.22298 41.0333 4.32719 41.0333H31.0668C32.663 41.0333 33.418 40.6558 33.9865 39.2623L32.6024 37.8781C32.0921 38.0925 31.2858 37.983 31.0668 37.983Z" fill="white"/>
<path d="M25.4951 18.2178H6.31714V21.3264H25.4951V18.2178Z" fill="white"/>
</svg>
