<svg width="34" height="34" viewBox="0 0 34 34" fill="none" xmlns="http://www.w3.org/2000/svg">
<path d="M32.5485 1.14587L32.5076 1.10854C31.725 0.393715 30.7106 0 29.6512 0C28.4635 0 27.3232 0.502766 26.5225 1.37927L11.3829 17.9541C11.2449 18.1051 11.1402 18.2834 11.0755 18.4774L9.29534 23.8142C9.08952 24.4312 9.19282 25.1135 9.57162 25.6394C9.95345 26.1694 10.5686 26.4858 11.2172 26.4858H11.2173C11.4979 26.4858 11.7721 26.4281 12.0322 26.3143L17.1866 24.0594C17.374 23.9774 17.5421 23.8571 17.68 23.706L32.8197 7.13131C34.3952 5.40666 34.2736 2.7218 32.5485 1.14587ZM12.7061 22.8283L13.7508 19.6968L13.8389 19.6003L15.8187 21.4086L15.7306 21.5051L12.7061 22.8283ZM30.6611 5.15952L17.7905 19.2501L15.8106 17.4418L28.6812 3.35106C28.9329 3.07546 29.2774 2.92362 29.6513 2.92362C29.9792 2.92362 30.2933 3.04564 30.5364 3.26764L30.5772 3.30496C31.1116 3.79311 31.1493 4.62508 30.6611 5.15952Z" fill="white"/>
<path d="M29.6114 13.4863C28.8041 13.4863 28.1496 14.1408 28.1496 14.9481V27.3586C28.1496 29.4085 26.4819 31.0762 24.432 31.0762H6.71494C4.66499 31.0762 2.99736 29.4085 2.99736 27.3586V9.7855C2.99736 7.73564 4.66509 6.06791 6.71494 6.06791H19.5386C20.346 6.06791 21.0005 5.41341 21.0005 4.6061C21.0005 3.79879 20.346 3.14429 19.5386 3.14429H6.71494C3.0529 3.14429 0.0737305 6.12356 0.0737305 9.7855V27.3585C0.0737305 31.0205 3.053 33.9997 6.71494 33.9997H24.4319C28.0938 33.9997 31.0731 31.0205 31.0731 27.3585V14.9481C31.0732 14.1408 30.4187 13.4863 29.6114 13.4863Z" fill="white"/>
</svg>
