<svg width="24" height="24" viewBox="0 0 24 24" fill="none" xmlns="http://www.w3.org/2000/svg">
<g clip-path="url(#clip0)">
<path d="M23.7254 22.3994L18.785 17.4589C18.7774 17.4511 18.7698 17.4435 18.762 17.436L6.57525 5.24921C6.567 5.24063 6.55866 5.23229 6.55013 5.22408L1.60114 0.275095C1.235 -0.0910472 0.641463 -0.0910472 0.275368 0.275095C-0.0907269 0.641237 -0.0907738 1.23477 0.275368 1.60087L4.46545 5.79094C2.32967 7.4725 1.00559 9.35022 0.617135 9.9408C-0.205712 11.1918 -0.205712 12.8085 0.617135 14.0595C1.11926 14.8229 2.53503 16.7827 4.83131 18.4894C7.15627 20.2175 9.57522 21.0937 12.0209 21.0937C14.0368 21.0937 16.0394 20.4939 17.9837 19.3092L22.3997 23.7252C22.5828 23.9083 22.8227 23.9998 23.0626 23.9998C23.3025 23.9998 23.5424 23.9083 23.7254 23.7252C24.0915 23.3591 24.0915 22.7655 23.7254 22.3994ZM8.97545 10.3009L10.2654 11.5909C10.1298 12.1837 10.2929 12.831 10.7547 13.2928C11.2165 13.7545 11.8637 13.9176 12.4566 13.782L13.7001 15.0256C13.187 15.3149 12.6056 15.4688 12.0004 15.4688C10.0878 15.4688 8.53182 13.9128 8.53182 12.0002C8.53177 11.3973 8.68609 10.8149 8.97545 10.3009ZM12.0209 19.2186C7.46916 19.2186 3.69566 15.328 2.18352 13.0291C1.77233 12.404 1.77233 11.5962 2.18352 10.9711C2.54075 10.428 3.78613 8.66331 5.80148 7.12703L7.61705 8.9426C6.99347 9.83407 6.65681 10.8949 6.65681 12.0001C6.65681 14.9466 9.05392 17.3437 12.0004 17.3437C13.1101 17.3437 14.1681 17.0077 15.0584 16.3839L16.6131 17.9386C15.0937 18.7887 13.5533 19.2186 12.0209 19.2186Z" fill="#8B6758"/>
<path d="M23.4072 9.97715C23.4024 9.96932 23.3975 9.96149 23.3925 9.95371C22.8947 9.18941 21.4902 7.22717 19.2041 5.51782C16.8867 3.78508 14.4699 2.90649 12.0207 2.90649C11.0885 2.90649 10.1436 3.03826 9.21221 3.29804C8.71346 3.43721 8.42199 3.9543 8.56107 4.45295C8.70019 4.95166 9.21708 5.24308 9.71598 5.1041C10.4833 4.89002 11.2588 4.7815 12.0207 4.7815C16.5531 4.7815 20.2911 8.64294 21.8022 10.9476C21.807 10.9554 21.812 10.9633 21.8171 10.971C22.0185 11.2772 22.1249 11.633 22.1249 12C22.1249 12.367 22.0185 12.7228 21.8171 13.029C21.3661 13.7146 20.7619 14.4666 20.1155 15.1465C19.7587 15.5218 19.7737 16.1152 20.149 16.4719C20.3304 16.6443 20.5628 16.7299 20.7948 16.7299C21.0427 16.7299 21.2902 16.6322 21.4744 16.4383C22.3983 15.4664 23.0226 14.6081 23.3836 14.0593C23.7868 13.4462 23.9999 12.7342 23.9999 11.9999C23.9998 11.2803 23.7951 10.5818 23.4072 9.97715Z" fill="#8B6758"/>
<path d="M17.2197 10.8497C16.779 8.84295 15.2002 7.24985 13.1972 6.79113C12.6926 6.67577 12.1897 6.991 12.0741 7.49566C11.9586 8.00037 12.274 8.50315 12.7787 8.61874C14.0781 8.91631 15.1025 9.94981 15.3883 11.2518C15.4844 11.6898 15.8724 11.9884 16.3031 11.9884C16.3696 11.9884 16.4373 11.9812 16.505 11.9663C17.0108 11.8553 17.3307 11.3554 17.2197 10.8497Z" fill="#8B6758"/>
</g>
<defs>
<clipPath id="clip0">
<rect width="24" height="24" fill="white"/>
</clipPath>
</defs>
</svg>
