<svg width="17" height="17" viewBox="0 0 17 17" fill="none" xmlns="http://www.w3.org/2000/svg">
<path d="M6.96246 13.9361C8.3959 13.9361 9.72014 13.4989 10.8259 12.7611L14.8259 16.7643C15.1401 17.0786 15.6588 17.0786 15.9863 16.7643L16.7645 15.9855C17.0785 15.6713 17.0785 15.1521 16.7645 14.8242L12.7509 10.8346C13.4879 9.72795 13.9249 8.40265 13.9249 6.96805C13.9249 3.12879 10.7986 0 6.96246 0C3.12628 0 0 3.12879 0 6.96805C0 10.8072 3.11263 13.9361 6.96246 13.9361ZM6.96246 2.73257C9.29693 2.73257 11.1945 4.63171 11.1945 6.96805C11.1945 9.3044 9.29693 11.2035 6.96246 11.2035C4.62799 11.2035 2.73038 9.3044 2.73038 6.96805C2.73038 4.63171 4.62799 2.73257 6.96246 2.73257Z" fill="white"/>
</svg>
