<svg width="28" height="32" viewBox="0 0 28 32" fill="none" xmlns="http://www.w3.org/2000/svg">
<path d="M27.6909 30.9482L25.2587 7.78734C25.2078 7.30248 24.799 6.93431 24.3115 6.93431H19.7402V5.89207C19.7402 2.6433 17.0969 0 13.8482 0C10.5992 0 7.95587 2.6433 7.95587 5.89207V6.93431H3.38456C2.89701 6.93431 2.48832 7.30248 2.43729 7.78734L0.00517027 30.9482C-0.0229039 31.2165 0.0642532 31.4843 0.244671 31.685C0.425338 31.8854 0.682657 31.9999 0.952433 31.9999H26.7434C27.0134 31.9999 27.2708 31.8854 27.4511 31.685C27.632 31.4843 27.719 31.2165 27.6909 30.9482ZM9.86065 5.89207C9.86065 3.6936 11.6495 1.90478 13.8482 1.90478C16.0466 1.90478 17.8354 3.6936 17.8354 5.89207V6.93431H9.86065V5.89207ZM2.01005 30.0951L4.24222 8.8391H7.95587V10.938C7.95587 11.4639 8.38233 11.8903 8.90823 11.8903C9.43412 11.8903 9.86065 11.4639 9.86065 10.938V8.8391H17.8354V10.938C17.8354 11.4639 18.262 11.8903 18.7879 11.8903C19.3137 11.8903 19.7402 11.4639 19.7402 10.938V8.8391H23.4539L25.6861 30.0951H2.01005Z" fill="white"/>
</svg>
