<svg width="36" height="41" viewBox="0 0 36 41" fill="none" xmlns="http://www.w3.org/2000/svg">
<path d="M35.479 39.6524L32.3628 9.97753C32.2974 9.3563 31.7738 8.88459 31.1491 8.88459H25.2922V7.54922C25.2922 3.38673 21.9054 0 17.743 0C13.5802 0 10.1934 3.38673 10.1934 7.54922V8.88459H4.33647C3.71179 8.88459 3.18816 9.3563 3.12278 9.97753L0.00662518 39.6524C-0.0293474 39.9961 0.0823239 40.3393 0.313486 40.5964C0.544962 40.8532 0.874658 40.9999 1.22031 40.9999H34.265C34.6109 40.9999 34.9406 40.8532 35.1718 40.5964C35.4036 40.3393 35.5149 39.9961 35.479 39.6524ZM12.6339 7.54922C12.6339 4.73242 14.9258 2.4405 17.743 2.4405C20.5598 2.4405 22.8517 4.73242 22.8517 7.54922V8.88459H12.6339V7.54922ZM2.57538 38.5594L5.43535 11.3251H10.1934V14.0143C10.1934 14.688 10.7399 15.2345 11.4137 15.2345C12.0874 15.2345 12.6339 14.688 12.6339 14.0143V11.3251H22.8517V14.0143C22.8517 14.688 23.3981 15.2345 24.0719 15.2345C24.7457 15.2345 25.2922 14.688 25.2922 14.0143V11.3251H30.0502L32.9102 38.5594H2.57538Z" fill="#8B6758"/>
</svg>
