<svg width="25" height="25" viewBox="0 0 25 25" fill="none" xmlns="http://www.w3.org/2000/svg">
<g clip-path="url(#clip0)">
<path d="M24.94 12.1983C24.9097 12.1251 24.1764 10.3876 22.2656 8.66164C20.52 7.08479 17.4086 5.20508 12.5 5.20508C7.56357 5.20508 4.45347 7.0853 2.71357 8.66265C0.808096 10.3902 0.0876416 12.1301 0.0579277 12.2033C-0.0185874 12.3919 -0.019345 12.6026 0.0559075 12.7917C0.0851163 12.865 0.792439 14.6073 2.69286 16.3365C4.42678 17.9143 7.53571 19.795 12.5 19.795C17.353 19.795 20.4666 17.9164 22.224 16.3403C24.1451 14.6176 24.9044 12.8846 24.9357 12.8117C25.02 12.6163 25.0214 12.395 24.94 12.1983ZM3.81306 15.2228C2.5916 14.128 1.92931 13.018 1.66239 12.5027C1.9331 11.9871 2.60372 10.8754 3.83108 9.7789C4.73907 8.9677 5.76214 8.31972 6.89471 7.83673C5.84034 9.10196 5.20507 10.7281 5.20507 12.5C5.20507 14.2786 5.84522 15.9104 6.90683 17.1777C5.7597 16.6935 4.72628 16.0415 3.81306 15.2228ZM12.5 18.2177C9.34724 18.2177 6.78234 15.6527 6.78234 12.5C6.78234 9.34733 9.34724 6.78235 12.5 6.78235C15.6528 6.78235 18.2177 9.34733 18.2177 12.5C18.2177 15.6527 15.6528 18.2177 12.5 18.2177ZM18.1607 17.0959C19.1818 15.8405 19.795 14.2407 19.795 12.5C19.795 10.7354 19.165 9.11518 18.1184 7.85213C19.236 8.33387 20.2487 8.97713 21.1509 9.78058C22.3748 10.8706 23.0529 11.9754 23.3309 12.4953C22.8721 13.332 21.3538 15.6811 18.1607 17.0959Z" fill="#8B6758"/>
<path d="M12.5 9.10889C10.6302 9.10889 9.10889 10.6302 9.10889 12.5C9.10889 14.3699 10.6302 15.8912 12.5 15.8912C14.3699 15.8912 15.8912 14.3699 15.8912 12.5C15.8912 10.6302 14.3699 9.10889 12.5 9.10889ZM12.5 14.3139C11.4998 14.3139 10.6862 13.5003 10.6862 12.5C10.6862 11.4998 11.4999 10.6862 12.5 10.6862C13.5002 10.6862 14.3139 11.4998 14.3139 12.5C14.3139 13.5003 13.5003 14.3139 12.5 14.3139Z" fill="#8B6758"/>
</g>
<defs>
<clipPath id="clip0">
<rect width="25" height="25" fill="white"/>
</clipPath>
</defs>
</svg>
